<svg width="654" height="319" viewBox="0 0 654 319" fill="none" xmlns="http://www.w3.org/2000/svg">
<g clip-path="url(#clip0_536_4)">
<path d="M45.7801 317.687C45.8028 317.71 616.389 317.619 616.389 317.619C635.172 277.538 635.149 257.961 637.277 234.989C649.089 108.023 553.479 88.5143 525.463 83.2184C439.696 67.0138 478.733 -13.1945 255.241 1.85584C234.761 3.2364 186.469 14.3714 169.814 21.5911C158.137 26.638 114.167 49.2702 101.246 87.5411C97.1723 99.6267 96.1992 113.251 100.295 128.392C114.869 181.94 76.9413 178.862 49.2425 204.368C12.2655 238.43 16.1352 294.127 45.7801 317.687Z" fill="#EBF3FA"/>
<path d="M385.657 317.665H385.724C386.177 317.665 386.562 317.28 386.539 316.827L385.294 262.872L381.628 262.442L384.751 316.827C384.819 317.28 385.204 317.665 385.657 317.665Z" fill="#B0D4FF"/>
<path d="M407.042 317.665H407.11C407.562 317.665 407.947 317.28 407.924 316.827L406.68 262.872L403.014 262.442L406.137 316.827C406.182 317.28 406.567 317.665 407.042 317.665Z" fill="#95C0F4"/>
<path d="M348.069 317.665H348.001C347.548 317.665 347.163 317.28 347.186 316.827L348.431 262.872L352.097 262.442L348.974 316.827C348.929 317.28 348.544 317.665 348.069 317.665Z" fill="#B0D4FF"/>
<path d="M409.463 259.523V222.542C409.463 216.046 404.19 210.773 397.696 210.773H371.06C364.566 210.773 359.293 216.046 359.293 222.542V260.926L409.463 259.523Z" fill="#B0D4FF"/>
<path d="M354.495 265.339H405.933C407.879 265.339 409.463 263.755 409.463 261.809V259.5H354.495V265.339Z" fill="#95C0F4"/>
<path d="M348.34 265.339H387.24C388.689 265.339 389.866 264.162 389.866 262.714V262.103C389.866 260.654 388.689 259.477 387.24 259.477H348.34C346.892 259.477 345.715 260.654 345.715 262.103V262.714C345.715 264.185 346.892 265.339 348.34 265.339Z" fill="#CAE5FF"/>
<path d="M437.976 64.909H284.434V197.465H437.976V64.909Z" fill="#95C0F4"/>
<path d="M434.99 67.1269H287.353V194.84H434.99V67.1269Z" fill="#DFEDFB"/>
<path d="M338.971 122.689H306.611V82.2905L312.087 77.334H338.971V122.689Z" fill="white"/>
<path d="M306.611 82.2905H311.929L312.087 77.334L306.611 82.2905Z" fill="#B0D4FF"/>
<path d="M327.973 81.272H317.609V81.7699H327.973V81.272Z" fill="#B0D4FF"/>
<path d="M330.395 82.7431H315.165V83.241H330.395V82.7431Z" fill="#B0D4FF"/>
<path d="M335.735 92.2486H310.435V92.8823H335.735V92.2486Z" fill="#B0D4FF"/>
<path d="M335.735 94.195H310.435V94.8287H335.735V94.195Z" fill="#B0D4FF"/>
<path d="M335.735 96.1187H310.435V96.7524H335.735V96.1187Z" fill="#B0D4FF"/>
<path d="M335.735 98.0424H310.435V98.6761H335.735V98.0424Z" fill="#B0D4FF"/>
<path d="M335.735 118.66H310.435V119.294H335.735V118.66Z" fill="#B0D4FF"/>
<path d="M376.311 178.749H343.973V138.35L349.449 133.394H376.311V178.749Z" fill="white"/>
<path d="M343.973 138.35H349.268L349.449 133.394L343.973 138.35Z" fill="#B0D4FF"/>
<path d="M365.335 137.332H354.971V137.83H365.335V137.332Z" fill="#B0D4FF"/>
<path d="M367.757 138.803H352.527V139.301H367.757V138.803Z" fill="#B0D4FF"/>
<path d="M373.097 148.308H347.797V148.942H373.097V148.308Z" fill="#B0D4FF"/>
<path d="M373.097 150.232H347.797V150.866H373.097V150.232Z" fill="#B0D4FF"/>
<path d="M373.097 152.156H347.797V152.79H373.097V152.156Z" fill="#B0D4FF"/>
<path d="M373.097 154.102H347.797V154.736H373.097V154.102Z" fill="#B0D4FF"/>
<path d="M373.097 160.032H347.797V160.666H373.097V160.032Z" fill="#B0D4FF"/>
<path d="M373.097 161.956H347.797V162.589H373.097V161.956Z" fill="#B0D4FF"/>
<path d="M373.097 164.174H347.797V164.807H373.097V164.174Z" fill="#B0D4FF"/>
<path d="M394.573 77.334H376.718V93.086H394.573V77.334Z" fill="#B0D4FF"/>
<path d="M384.864 79.2125C384.864 78.7825 385.204 78.4204 385.656 78.4204C386.109 78.4204 386.448 78.7598 386.448 79.2125C386.448 79.6425 386.109 80.0046 385.656 80.0046C385.204 80.0046 384.864 79.6425 384.864 79.2125Z" fill="#FFA412"/>
<path d="M394.014 98.0536L376.202 99.2971L377.299 115.011L395.111 113.768L394.014 98.0536Z" fill="white"/>
<path d="M384.525 101.573C384.502 101.143 384.819 100.758 385.249 100.736C385.679 100.713 386.064 101.03 386.086 101.46C386.109 101.89 385.792 102.275 385.362 102.297C384.91 102.32 384.548 102.003 384.525 101.573Z" fill="#B0D4FF"/>
<path d="M334.655 156.084L316.843 157.327L317.94 173.041L335.752 171.798L334.655 156.084Z" fill="white"/>
<path d="M325.145 159.602C325.122 159.172 325.439 158.787 325.869 158.764C326.299 158.742 326.683 159.059 326.706 159.489C326.729 159.919 326.412 160.303 325.982 160.326C325.552 160.349 325.19 160.032 325.145 159.602Z" fill="#B0D4FF"/>
<path d="M312.195 167.356L294.342 167.539L294.503 183.29L312.356 183.107L312.195 167.356Z" fill="white"/>
<path d="M302.538 170.329C302.538 169.899 302.877 169.537 303.307 169.537C303.737 169.537 304.099 169.877 304.099 170.307C304.099 170.737 303.76 171.099 303.33 171.099C302.9 171.099 302.538 170.759 302.538 170.329Z" fill="#B0D4FF"/>
<path d="M421.054 110.678L403.478 107.537L400.708 123.043L418.284 126.184L421.054 110.678Z" fill="#EEF6FF"/>
<path d="M411.205 111.101C411.273 110.739 411.635 110.49 411.997 110.558C412.36 110.626 412.609 110.988 412.541 111.35C412.473 111.712 412.111 111.961 411.749 111.893C411.386 111.825 411.16 111.486 411.205 111.101Z" fill="#78ACEA"/>
<path d="M366.182 97.7378L348.43 99.6592L350.125 115.32L367.876 113.398L366.182 97.7378Z" fill="#EEF6FF"/>
<path d="M356.849 100.894C356.804 100.532 357.075 100.192 357.46 100.147C357.845 100.102 358.162 100.374 358.207 100.758C358.252 101.12 357.981 101.46 357.596 101.505C357.234 101.528 356.894 101.256 356.849 100.894Z" fill="#78ACEA"/>
<path d="M319.789 134.976L302.327 138.699L305.611 154.105L323.073 150.382L319.789 134.976Z" fill="#BAE8E3"/>
<path d="M311.137 139.482C310.82 139.278 310.729 138.848 310.933 138.531C311.137 138.214 311.567 138.124 311.883 138.328C312.2 138.531 312.291 138.961 312.087 139.278C311.883 139.595 311.453 139.686 311.137 139.482Z" fill="#FFA412"/>
<path d="M366.647 93.086H349.652V81.6567L354.359 77.334H366.647V93.086Z" fill="white"/>
<path d="M349.562 81.6568H354.201L354.36 77.334L349.562 81.6568Z" fill="#B0D4FF"/>
<path d="M358.207 78.8051C358.207 78.4883 358.455 78.2393 358.772 78.2393C359.089 78.2393 359.338 78.4883 359.338 78.8051C359.338 79.122 359.089 79.3709 358.772 79.3709C358.455 79.3709 358.207 79.0993 358.207 78.8051Z" fill="#B0D4FF"/>
<path d="M416.32 186.625H399.325V175.195L404.032 170.873H416.32V186.625Z" fill="white"/>
<path d="M399.234 175.195H403.874L404.032 170.873L399.234 175.195Z" fill="#B0D4FF"/>
<path d="M407.879 172.321C407.879 172.004 408.128 171.755 408.445 171.755C408.761 171.755 409.01 172.004 409.01 172.321C409.01 172.638 408.761 172.887 408.445 172.887C408.128 172.887 407.879 172.638 407.879 172.321Z" fill="#B0D4FF"/>
<path d="M424.082 163.947H407.087V152.518L411.794 148.195H424.082V163.947Z" fill="white"/>
<path d="M406.997 152.518H411.636L411.794 148.195L406.997 152.518Z" fill="#B0D4FF"/>
<path d="M415.641 149.644C415.641 149.327 415.89 149.078 416.207 149.078C416.524 149.078 416.773 149.327 416.773 149.644C416.773 149.961 416.524 150.21 416.207 150.21C415.89 150.21 415.641 149.961 415.641 149.644Z" fill="#B0D4FF"/>
<path d="M401.633 163.947H384.638V152.518L389.345 148.195H401.633V163.947Z" fill="#BAE8E3"/>
<path d="M384.548 152.518H389.187L389.345 148.195L384.548 152.518Z" fill="#A1D6CE"/>
<path d="M393.215 149.644C393.215 149.327 393.464 149.078 393.781 149.078C394.097 149.078 394.346 149.327 394.346 149.644C394.346 149.961 394.097 150.21 393.781 150.21C393.464 150.21 393.215 149.961 393.215 149.644Z" fill="#F99746"/>
<path d="M428.88 89.148H411.885V77.7188L416.592 73.396H428.88V89.148Z" fill="#BAE8E3"/>
<path d="M411.794 77.7188H416.433L416.592 73.396L411.794 77.7188Z" fill="#A1D6CE"/>
<path d="M420.438 74.8445C420.438 74.5276 420.687 74.2787 421.004 74.2787C421.321 74.2787 421.57 74.5276 421.57 74.8445C421.57 75.1613 421.321 75.4103 421.004 75.4103C420.687 75.4103 420.438 75.1613 420.438 74.8445Z" fill="#F99746"/>
<path d="M260.74 61.7178H228.402C226.908 61.7178 225.709 60.4957 225.709 59.0246V27.7923C225.709 26.2985 226.931 25.099 228.402 25.099H260.74C262.233 25.099 263.433 26.3212 263.433 27.7923V59.002C263.433 60.4957 262.233 61.7178 260.74 61.7178Z" fill="#C0D8FB"/>
<path d="M259.337 60.111H229.805C228.447 60.111 227.338 59.002 227.338 57.6441V29.1276C227.338 27.7696 228.447 26.6607 229.805 26.6607H259.337C260.695 26.6607 261.803 27.7696 261.803 29.1276V57.6441C261.803 59.002 260.695 60.111 259.337 60.111Z" fill="#DFEBFD"/>
<path d="M243.79 30.0102C243.79 29.5802 244.129 29.2181 244.582 29.2181C245.012 29.2181 245.374 29.5576 245.374 30.0102C245.374 30.4402 245.035 30.8023 244.582 30.8023C244.129 30.8023 243.79 30.4402 243.79 30.0102Z" fill="#B7D3F3"/>
<path d="M250.104 31.1192C250.308 30.7344 250.783 30.5986 251.168 30.825C251.552 31.0287 251.688 31.5039 251.462 31.8887C251.258 32.2734 250.783 32.4092 250.398 32.1829C250.013 31.9792 249.878 31.5039 250.104 31.1192Z" fill="#B7D3F3"/>
<path d="M255.49 35.4193C255.852 35.193 256.327 35.2835 256.576 35.6456C256.802 36.0077 256.712 36.483 256.35 36.732C255.988 36.9583 255.512 36.8678 255.264 36.5056C255.037 36.1435 255.128 35.6456 255.49 35.4193Z" fill="#B7D3F3"/>
<path d="M258.183 42.0732C258.613 42.0732 258.975 42.4126 258.975 42.8653C258.975 43.2953 258.635 43.6574 258.183 43.6574C257.753 43.6574 257.391 43.3179 257.391 42.8653C257.391 42.4126 257.753 42.0732 258.183 42.0732Z" fill="#B7D3F3"/>
<path d="M256.802 49.7681C257.096 50.0623 257.096 50.5602 256.802 50.877C256.508 51.1713 256.01 51.1713 255.693 50.877C255.399 50.5828 255.399 50.0849 255.693 49.7681C256.01 49.4739 256.508 49.4739 256.802 49.7681Z" fill="#B7D3F3"/>
<path d="M251.892 54.7019C252.186 54.9961 252.186 55.494 251.892 55.8109C251.597 56.1051 251.099 56.1051 250.783 55.8109C250.488 55.5166 250.488 55.0187 250.783 54.7019C251.099 54.385 251.597 54.385 251.892 54.7019Z" fill="#B7D3F3"/>
<path d="M243.79 57.2367C243.79 56.8067 244.129 56.4446 244.582 56.4446C245.012 56.4446 245.374 56.784 245.374 57.2367C245.374 57.6667 245.035 58.0288 244.582 58.0288C244.129 58.0288 243.79 57.6667 243.79 57.2367Z" fill="#B7D3F3"/>
<path d="M239.015 31.1192C238.812 30.7344 238.337 30.5986 237.952 30.825C237.567 31.0287 237.431 31.5039 237.658 31.8887C237.861 32.2734 238.337 32.4092 238.721 32.1829C239.083 31.9792 239.219 31.5039 239.015 31.1192Z" fill="#B7D3F3"/>
<path d="M233.607 35.4193C233.245 35.193 232.77 35.2835 232.521 35.6456C232.295 36.0077 232.385 36.483 232.747 36.732C233.109 36.9583 233.584 36.8678 233.833 36.5056C234.082 36.1435 233.969 35.6456 233.607 35.4193Z" fill="#B7D3F3"/>
<path d="M230.937 42.0732C230.507 42.0732 230.145 42.4126 230.145 42.8653C230.145 43.2953 230.484 43.6574 230.937 43.6574C231.367 43.6574 231.729 43.3179 231.729 42.8653C231.706 42.4126 231.367 42.0732 230.937 42.0732Z" fill="#B7D3F3"/>
<path d="M232.294 49.7681C232 50.0623 232 50.5602 232.294 50.877C232.589 51.1713 233.086 51.1713 233.403 50.877C233.697 50.5828 233.697 50.0849 233.403 49.7681C233.109 49.4739 232.611 49.4739 232.294 49.7681Z" fill="#B7D3F3"/>
<path d="M237.205 54.7019C236.911 54.9961 236.911 55.494 237.205 55.8109C237.499 56.1051 237.997 56.1051 238.314 55.8109C238.608 55.5166 238.608 55.0187 238.314 54.7019C238.02 54.385 237.522 54.385 237.205 54.7019Z" fill="#B7D3F3"/>
<path d="M244.356 42.8426C244.356 42.4126 244.695 42.0505 245.148 42.0505C245.578 42.0505 245.94 42.39 245.94 42.8426C245.94 43.2727 245.601 43.6348 245.148 43.6348C244.695 43.6348 244.356 43.2727 244.356 42.8426Z" fill="#B7D3F3"/>
<path d="M245.238 33.0882H245.035V42.8653H245.238V33.0882Z" fill="#B7D3F3"/>
<path d="M250.024 38.5185L244.845 42.586L245.236 43.0844L250.415 39.0169L250.024 38.5185Z" fill="#B7D3F3"/>
<path d="M459.837 315.718C459.678 317.823 456.714 317.846 453.365 317.461C449.993 317.076 450.898 317.914 446.191 317.982C441.484 318.049 439.855 316.488 439.629 315.809C439.425 315.22 441.688 314.7 444.109 314.111C444.403 314.044 444.72 313.953 445.037 313.885C447.775 313.184 449.586 311.147 451.916 309.359C454.134 307.661 456.986 301.528 456.986 301.528L463.412 301.234C463.412 301.234 460.697 306.733 459.679 309.087C459.09 310.49 459.339 312.188 459.588 313.5C459.769 314.247 459.905 314.994 459.837 315.718Z" fill="#FFB27D"/>
<path d="M453.365 317.461C449.993 317.076 450.898 317.914 446.191 317.982C441.484 318.049 439.855 316.488 439.629 315.809C439.425 315.22 441.688 314.7 444.109 314.111L444.132 314.157C444.132 314.157 447.164 315.786 451.034 315.402C454.202 315.085 457.416 313.772 459.611 313.523C459.746 314.247 459.882 314.971 459.837 315.718C459.678 317.823 456.737 317.846 453.365 317.461Z" fill="#233862"/>
<path d="M504.259 316.171C504.101 318.276 501.136 318.298 497.787 317.914C494.415 317.529 495.32 318.366 490.613 318.457C485.906 318.525 484.277 316.963 484.051 316.307C483.847 315.718 486.11 315.198 488.532 314.609C488.826 314.542 489.143 314.451 489.459 314.383C492.198 313.681 494.008 311.645 496.339 309.834C498.556 308.137 496.339 298.088 496.339 298.088L503.422 297.409C503.422 297.409 503.082 305.873 503.082 309.698C503.082 311.215 503.784 312.663 504.033 313.976C504.191 314.7 504.327 315.424 504.259 316.171Z" fill="#FFB27D"/>
<path d="M497.787 317.891C494.415 317.506 495.32 318.344 490.613 318.434C485.906 318.502 484.277 316.94 484.051 316.284C483.847 315.696 486.11 315.175 488.532 314.587L488.554 314.632C488.554 314.632 491.587 316.262 495.456 315.854C498.624 315.537 501.838 314.202 504.01 313.976C504.146 314.7 504.282 315.424 504.237 316.171C504.123 318.253 501.159 318.298 497.787 317.891Z" fill="#233862"/>
<path d="M483.621 142.628C482.399 137.626 484.164 135.295 485.771 134.05C486.517 132.217 487.377 130.882 488.26 130.384C489.867 129.478 491.79 129.365 493.148 129.456C492.809 129.094 492.13 128.958 492.13 128.958C492.967 128.845 494.823 129.66 494.823 129.66C506.454 125.178 508.265 142.288 508.038 146.272C507.789 150.255 507.835 154.94 513.877 158.063C525.418 164.038 510.052 186.579 510.052 186.579C510.347 183.366 495.524 166.414 487.785 161.322C485.906 158.538 485.228 153.65 485.182 153.265C485.499 157.158 486.178 159.33 486.766 160.552C483.213 157.316 482.693 149.508 483.621 142.628Z" fill="#A9453D"/>
<path d="M488.215 161.571C488.169 161.593 491.949 163.54 494.777 162.77C497.448 162.046 499.19 158.583 499.145 158.561C498.013 158.334 497.697 156.773 497.719 150.096L497.199 150.187L488.6 151.884C488.6 151.884 488.803 154.6 488.803 157.135C488.826 159.308 488.713 161.345 488.215 161.571Z" fill="#FFB27D"/>
<path d="M488.622 151.93C488.622 151.93 488.826 154.645 488.826 157.18C493.646 157.044 496.18 152.654 497.221 150.232L488.622 151.93Z" fill="#ED975D"/>
<path d="M453.659 304.945C453.229 306.258 454.18 307.639 455.56 307.684L458.909 307.842L462.462 307.956C463.345 307.978 464.205 307.593 464.77 306.914C467.599 303.429 476.334 291.841 481.629 274.98C481.788 274.505 481.946 274.03 482.105 273.555C485.612 263.348 492.854 250.56 496.678 238.973C497.289 237.117 497.832 235.397 498.33 233.745C498.489 233.224 498.647 232.704 498.783 232.183C501.589 222.406 502.403 215.978 503.173 209.121L475.587 209.347C475.565 209.347 469.771 254.498 453.659 304.945Z" fill="#2A4E96"/>
<path d="M479.434 193.482C479.502 206.609 477.511 212.244 477.511 212.244C477.511 212.244 489.324 218.242 503.354 213.828C503.512 213.783 514.986 211.158 514.986 211.158C514.759 210.637 512.655 201.788 512.429 201.29C509.464 194.931 507.224 192.124 506.862 190.178C506.205 186.534 506.205 182.755 506.522 179.179C507.382 169.741 509.917 161.91 509.917 161.91C506.092 161.05 502.517 159.511 498.534 158.018C497.629 159.149 494.823 160.349 492.401 160.303C489.595 160.236 488.69 159.036 488.848 157.746C485.861 159.398 483.485 160.96 483.485 160.96C480.951 165.35 475.814 169.628 475.452 176.372C475.338 178.047 479.434 193.12 479.434 193.482Z" fill="white"/>
<path d="M503.15 194.953C504.35 196.651 506.658 207.039 512.428 208.329C509.464 200.928 507.224 197.692 506.861 195.429C506.205 191.174 506.205 186.783 506.522 182.641C504.599 179.269 503.15 176.961 503.15 176.961C502.992 176.418 500.095 167.41 499.167 175.467C498.24 183.501 501.815 193.052 503.15 194.953Z" fill="#5F9AA8"/>
<path d="M487.015 154.329C487.015 154.329 498.398 154.51 498.398 147.426C498.398 140.342 499.869 135.589 492.605 135.159C485.341 134.729 483.915 137.445 483.349 139.799C482.783 142.198 484.051 154.102 487.015 154.329Z" fill="#FFB27D"/>
<path d="M487.445 135.001C487.445 135.001 490.568 143.329 495.343 144.551C500.118 145.774 502.2 144.506 502.2 144.506C502.2 144.506 498.534 141.587 497.765 136.494C497.765 136.494 489.799 131.04 487.445 135.001Z" fill="#A9453D"/>
<path d="M488.215 135.68C488.215 135.68 485.884 137.536 485.318 139.346C484.752 141.157 484.503 144.868 483.417 144.733C483.417 144.733 481.064 139.074 483.711 135.883C486.495 132.489 488.215 135.68 488.215 135.68Z" fill="#A9453D"/>
<path d="M469.115 202.603L463.729 218.989L466.807 220.211L475.7 205.749L469.115 202.603Z" fill="#FFB27D"/>
<path d="M483.598 159.987C483.598 159.987 477.262 162.499 475.429 166.414C473.596 170.329 470.812 196.628 469.704 199.344C468.595 202.037 467.757 204.187 467.757 204.187C467.757 204.187 470.948 206.88 474.162 207.084C477.398 207.288 483.598 159.987 483.598 159.987Z" fill="#F99746"/>
<path d="M488.826 157.746C488.826 157.746 482.24 174.019 482.037 177.3C481.833 180.582 481.267 231.142 481.267 231.142C481.267 231.142 481.652 233.473 477.194 232.5C472.736 231.527 471.582 230.554 471.582 230.554C471.582 230.554 475.836 199.366 474.682 188.526C473.528 177.685 483.598 159.987 483.598 159.987L488.826 157.746Z" fill="#F99746"/>
<path d="M458.932 307.865L462.779 307.978C463.458 308.001 464.136 307.707 464.566 307.163C467.169 304.018 476.198 292.271 481.629 274.98C481.788 274.505 481.946 274.03 482.104 273.555C485.612 263.348 492.854 250.56 496.678 238.973C497.289 237.117 497.832 235.397 498.33 233.745C498.488 233.224 498.647 232.704 498.783 232.183L494.709 229.105C494.709 229.105 482.512 248.863 478.733 267.444C475.451 283.603 462.326 303.022 458.932 307.865Z" fill="#1E3D70"/>
<path d="M494.28 269.187C494.212 277.742 494.619 296.798 495.66 306.122C495.75 306.982 496.475 307.616 497.335 307.616H500.209C501.431 307.616 502.336 307.616 502.924 307.593C503.445 307.593 503.897 307.209 503.988 306.688C506.839 292.113 508.898 280.027 510.392 269.571C511.637 260.813 512.768 253.322 513.628 246.849C514.488 240.353 515.099 234.899 515.303 230.305C515.325 229.58 515.37 228.879 515.37 228.2C515.393 227.521 515.393 226.842 515.393 226.186L491.564 223.854C491.881 239.697 494.325 263.936 494.28 269.187Z" fill="#2A4E96"/>
<path d="M500.231 307.616C501.317 307.616 502.154 307.616 502.765 307.593C503.399 307.593 503.942 307.141 504.055 306.507C506.907 292.022 508.943 279.982 510.437 269.571C511.682 260.813 512.813 253.322 513.673 246.849C514.533 240.353 515.144 234.899 515.348 230.305L506.613 235.442C506.613 235.442 512.202 237.411 510.075 252.326C507.902 267.24 503.195 305.489 500.231 307.616Z" fill="#1E3D70"/>
<path d="M499.1 230.169C499.1 230.169 500.774 236.234 506.59 235.465C512.406 234.695 520.666 231.21 520.666 231.21C520.666 231.21 518.176 223.357 515.099 213.059C511.365 200.589 506.726 184.497 504.553 174.358C503.942 171.506 503.512 169.13 503.377 167.433L498.557 158.085C498.557 158.085 491.36 174.222 490.976 178.273C490.568 182.325 499.1 230.169 499.1 230.169Z" fill="#F99746"/>
<path d="M504.893 177.662L498.534 158.063C498.556 158.063 506.567 160.439 510.595 162.476C510.595 162.476 513.107 165.735 514.669 173.226C514.669 173.226 516.321 191.219 512.632 197.805C512.632 197.805 501.023 200.136 482.421 193.731V189.476C482.421 189.476 502.743 190.54 506.907 191.015L504.893 177.662Z" fill="#FFB27D"/>
<path d="M499.349 186.783C499.597 193.369 501.159 206.156 514.963 212.991C515.008 213.014 515.031 213.036 515.076 213.036C511.342 200.566 506.703 184.475 504.531 174.335C501.996 178.138 499.213 183.162 499.349 186.783Z" fill="#ED7D2B"/>
<path d="M498.534 158.063C498.534 158.063 510.324 158.9 513.175 165.215C516.004 171.552 516.909 192.577 513.311 198.778C513.311 198.778 508.332 200.204 499.529 198.552C499.416 198.529 499.303 198.506 499.213 198.484C499.213 198.484 496.407 191.604 498.918 190.246C498.918 190.246 506.341 190.63 505.572 188.186C504.78 185.742 498.534 158.063 498.534 158.063Z" fill="#F99746"/>
<path d="M468.979 192.124L469.319 193.233L488.667 187.213C488.667 187.213 488.916 186.919 488.803 186.534C488.667 186.104 488.328 186.104 488.328 186.104L468.979 192.124Z" fill="#A9453D"/>
<path d="M467.576 193.188L468.979 192.124L469.319 193.233L467.576 193.188Z" fill="#A9453D"/>
<path d="M464.499 218.536C464.499 218.536 459.588 221.252 458.954 223.311C458.298 225.371 458.751 229.716 459.52 229.648C460.289 229.58 461.466 225.009 462.1 224.669C462.756 224.352 463.639 223.379 463.639 224.081C463.639 224.782 462.982 226.072 463.322 226.276C463.639 226.48 464.68 224.466 465.381 224.081C466.083 223.696 466.399 220.505 467.078 219.645C467.802 218.808 464.499 218.536 464.499 218.536Z" fill="#FFB27D"/>
<path d="M482.444 189.499C482.444 189.499 478.054 186.806 476.221 187.213C474.388 187.62 469.681 191.038 471.944 191.762C474.207 192.509 476.04 191.717 476.9 192.26C477.76 192.803 478.416 193.776 482.444 193.754C486.495 193.731 482.444 189.499 482.444 189.499Z" fill="#FFB27D"/>
<path d="M137.25 160.439C136.503 159.013 153.294 153.899 153.566 167.908C153.566 167.908 185.021 167.138 169.995 149.598C164.79 143.533 165.333 138.509 165.492 133.846C165.65 129.184 162.256 115.605 150.601 116.963C150.601 116.963 147.546 115.718 143.745 117.687C135.1 122.214 115.729 165.622 137.25 160.439Z" fill="#163560"/>
<path d="M188.665 176.101C188.665 176.101 190.701 172.977 192.353 172.932C194.005 172.864 197.06 172.004 196.811 172.615C196.562 173.226 194.661 173.294 194.48 173.656C194.299 174.019 197.286 174.584 198.146 174.63C199.006 174.697 201.02 174.63 200.953 175.06C200.885 175.49 197.309 177.255 194.797 177.006C192.285 176.757 189.162 177.73 189.162 177.73L188.665 176.101Z" fill="#FFB27D"/>
<path d="M159.064 177.119C159.064 177.119 160.173 179.314 162.187 181.849C164.631 184.905 168.365 188.413 173.072 189.114C175.313 189.454 177.53 188.956 179.544 188.073C185.27 185.538 189.569 179.699 189.569 179.699C190.588 176.938 188.936 175.082 188.936 175.082C188.936 175.082 177.395 177.685 176.286 177.119C175.177 176.576 168.773 158.085 167.234 155.754C165.695 153.423 160.49 152.224 160.49 152.224L159.064 177.119Z" fill="#B0D0FF"/>
<path d="M162.188 181.849C164.632 184.905 168.366 188.413 173.073 189.114C175.313 189.454 177.531 188.956 179.545 188.073C179.318 188.096 173.616 188.797 171.33 184.724C168.999 180.559 166.487 173.973 163.048 176.169C161.577 177.119 161.645 179.473 162.188 181.849Z" fill="#98BAF4"/>
<path d="M115.978 301.8C115.978 301.8 112.447 305.013 113.149 307.299C113.828 309.585 117.019 311.101 117.449 313.908C117.878 316.692 119.598 318.23 121.137 318.23C122.676 318.23 128.514 318.23 128.514 318.23C128.514 318.23 129.646 316.262 126.908 315.673C124.147 315.085 123.129 311.803 123.287 308.748C123.468 305.692 123.038 301.641 123.038 301.641L117.2 300.283L115.978 301.8Z" fill="#233862"/>
<path d="M145.804 303.158C145.804 303.158 144.536 316.782 146.075 317.552L165.876 317.506C165.876 317.506 165.876 315.22 162.685 314.723C159.495 314.225 153.928 312.346 152.977 308.204C152.049 304.063 145.804 303.158 145.804 303.158Z" fill="#233862"/>
<path d="M131.682 205.409C135.756 196.266 138.245 193.641 137.77 190.812C137.408 188.707 138.856 151.454 138.856 151.454C139.331 151.296 140.304 151.16 140.848 151.047C142.522 150.685 143.903 149.508 144.468 147.878C145.17 145.932 145.713 143.058 145.69 139.482L146.211 139.595L154.991 141.338C154.991 141.338 154.787 144.099 154.787 146.702C154.787 146.724 154.787 146.747 154.787 146.769C154.787 149.033 156.258 151.024 158.431 151.658C159.54 151.975 160.513 152.246 160.513 152.246C160.513 152.246 163.726 161.458 164.36 170.895C164.971 180.355 158.499 184.452 164.405 203.35C170.425 222.632 129.442 210.456 131.682 205.409Z" fill="#FFB27D"/>
<path d="M155.014 141.315C155.014 141.315 154.81 144.076 154.81 146.679C149.899 146.543 147.297 142.062 146.233 139.572L155.014 141.315Z" fill="#E8945B"/>
<path d="M156.643 143.782C156.643 143.782 145.034 143.963 145.011 136.743C145.011 129.501 143.495 124.658 150.918 124.228C158.34 123.798 159.789 126.559 160.377 128.981C160.965 131.38 159.675 143.556 156.643 143.782Z" fill="#FFB27D"/>
<path d="M156.213 124.047C156.213 124.047 153.023 132.534 148.157 133.801C143.269 135.046 141.165 133.756 141.165 133.756C141.165 133.756 144.898 130.791 145.691 125.586C145.668 125.563 153.815 119.996 156.213 124.047Z" fill="#163560"/>
<path d="M155.421 124.726C155.421 124.726 157.775 125.608 158.748 127.328C159.698 129.003 160.513 131.244 160.309 133.982C160.309 133.982 162.708 128.211 160.015 124.952C157.164 121.489 155.421 124.726 155.421 124.726Z" fill="#163560"/>
<path d="M154.109 139.301C154.109 139.301 154.901 140.365 156.508 140.274C157.798 140.206 158.295 139.097 158.295 139.097C158.295 139.097 155.942 138.531 154.109 139.301Z" fill="#EBF3FA"/>
<path d="M130.574 167.93C130.574 167.93 130.279 172.095 130.574 177.074C130.777 180.378 134.126 184.814 134.602 185.923C135.801 188.684 137.136 189.114 137.136 189.114L147.523 191.672L151.189 192.577L162.708 189.137C162.708 189.137 167.958 174.471 165.853 166.233C163.749 157.972 160.535 152.246 160.535 152.246C160.535 152.246 151.121 161.458 138.879 151.454L130.574 167.93Z" fill="#B0D0FF"/>
<path d="M133.606 178.432C133.81 181.736 134.104 184.814 134.579 185.923C135.778 188.684 137.114 189.114 137.114 189.114L147.501 191.672L152.027 190.336C152.027 190.336 136.955 188.05 138.63 175.082L133.606 178.432Z" fill="#F2CCAA"/>
<path d="M161.961 191.332C161.961 191.332 167.664 209.098 168.026 215.164C168.388 221.207 157.119 301.121 156.666 303.904C156.236 306.53 152.977 308.204 152.977 308.204C152.977 308.204 151.484 309.087 149.334 308.476C146.369 307.639 145.419 306.643 145.419 306.643C145.419 306.643 140.984 249.655 143.722 229.309C146.483 208.963 146.505 191.355 146.505 191.355H161.961V191.332Z" fill="#ED7D2B"/>
<path d="M137.792 190.812C137.792 190.812 129.08 202.49 128.265 210.388C127.451 218.287 126.998 246.034 125.256 253.729C123.536 261.424 117.177 276.248 117.177 300.261C117.177 300.261 117.833 301.641 119.87 302.365C120.526 302.592 121.386 302.818 122.246 303.022C123.92 303.406 125.663 302.592 126.41 301.03C130.709 292.385 144.4 264.479 145.102 258.685C145.6 254.589 149.922 227.453 159.336 211.543C161.599 207.718 157.956 192.532 157.956 192.532L137.792 190.812Z" fill="#F99746"/>
<path d="M154.38 139.482C154.38 139.482 154.584 140.342 156.711 140.206C156.711 140.206 158.499 140.093 158.431 139.165C158.431 139.165 156.689 138.509 154.38 139.482Z" fill="white"/>
<path d="M162.889 188.594C162.889 188.594 160.603 190.404 156.055 190.495C150.624 190.608 137.136 189.114 137.136 189.114C137.136 189.114 136.548 190.789 136.57 192.554C136.57 192.554 153.022 196.696 162.572 193.165C162.549 193.165 163.771 190.857 162.889 188.594Z" fill="#233862"/>
<path d="M154.855 192.373C154.855 190.834 155.964 189.567 157.345 189.567C158.703 189.567 159.834 190.834 159.834 192.373C159.834 193.912 158.725 195.18 157.345 195.18C155.964 195.18 154.855 193.935 154.855 192.373ZM155.67 192.373C155.67 193.46 156.417 194.365 157.322 194.365C158.227 194.365 158.974 193.482 158.974 192.373C158.974 191.287 158.227 190.382 157.322 190.382C156.417 190.382 155.67 191.287 155.67 192.373Z" fill="white"/>
<path d="M119.395 191.811L136.258 206.495L156.35 183.418L139.487 168.733L119.395 191.811Z" fill="#B5453C"/>
<path d="M140.916 191.875C140.916 191.875 147.093 192.6 147.071 194.071C147.048 195.542 145.532 198.552 144.763 198.688C143.993 198.823 139.739 194.614 139.739 194.614L140.916 191.875Z" fill="#FFB27D"/>
<path d="M138.856 151.454C138.856 151.454 130.619 152.043 127.451 159.715C124.283 167.41 118.286 180.31 118.286 182.483C118.286 184.656 121.635 191.355 139.626 195.202C139.626 195.202 141.481 193.233 141.368 191.694C141.368 191.694 130.144 182.053 130.166 180.921C130.234 178.794 131.999 175.965 141.866 166.097C144.559 163.404 138.856 151.454 138.856 151.454Z" fill="#B0D0FF"/>
<path d="M229.986 317.8H229.918C229.466 317.8 229.081 317.416 229.103 316.963L230.348 263.008L234.014 262.578L230.891 316.963C230.846 317.438 230.461 317.8 229.986 317.8Z" fill="#B0D4FF"/>
<path d="M208.624 317.8H208.556C208.103 317.8 207.719 317.416 207.741 316.963L208.986 263.008L212.652 262.578L209.529 316.963C209.484 317.438 209.099 317.8 208.624 317.8Z" fill="#95C0F4"/>
<path d="M267.574 317.8H267.642C268.094 317.8 268.479 317.416 268.457 316.963L267.212 263.008L263.546 262.578L266.669 316.963C266.714 317.438 267.099 317.8 267.574 317.8Z" fill="#B0D4FF"/>
<path d="M206.18 259.659V222.678C206.18 216.182 211.452 210.909 217.947 210.909H244.582C251.077 210.909 256.35 216.182 256.35 222.678V261.062L206.18 259.659Z" fill="#B0D4FF"/>
<path d="M261.147 265.498H209.732C207.786 265.498 206.202 263.913 206.202 261.967V259.659H261.147V265.498Z" fill="#95C0F4"/>
<path d="M267.325 265.498H228.425C226.977 265.498 225.8 264.321 225.8 262.872V262.261C225.8 260.813 226.977 259.636 228.425 259.636H267.325C268.774 259.636 269.95 260.813 269.95 262.261V262.872C269.928 264.321 268.751 265.498 267.325 265.498Z" fill="#B0D4FF"/>
<path d="M265.809 250.447C261.985 257.078 257.187 259.658 257.187 259.658H237.228C237.228 259.658 268.728 245.378 265.809 250.447Z" fill="#233862"/>
<path d="M250.466 301.845C249.946 302.433 249.878 303.112 250.127 303.814C250.602 305.127 252.186 306.598 253.996 308.069C254.223 308.25 254.449 308.431 254.607 308.589C254.653 308.635 254.698 308.68 254.743 308.725C254.788 308.748 254.811 308.793 254.856 308.816C256.553 310.377 255.92 310.739 258.975 313.93C262.46 317.574 264.859 317.619 265.56 317.303C266.148 317.031 264.972 315.085 263.659 312.935C263.591 312.821 263.523 312.731 263.478 312.618C263.297 312.324 263.139 312.029 262.958 311.758C261.441 309.155 261.826 307.933 262.188 304.04C262.482 300.894 267.099 286.432 267.099 286.432L260.401 285.278C260.401 285.278 258.386 296.798 256.169 298.563C254.992 299.514 253.657 299.514 252.503 300.215C252.412 300.261 252.344 300.306 252.276 300.374C251.643 300.804 250.987 301.234 250.466 301.845Z" fill="#FFB27D"/>
<path d="M250.466 301.845C249.946 302.433 249.878 303.112 250.127 303.814C250.715 305.127 252.254 306.598 254.019 308.046C254.245 308.227 254.449 308.408 254.63 308.589C254.675 308.634 254.721 308.68 254.766 308.725C254.811 308.748 254.834 308.793 254.879 308.816C256.576 310.377 255.943 310.739 258.998 313.93C262.483 317.574 264.881 317.619 265.583 317.303C266.171 317.031 264.994 315.085 263.682 312.935C263.003 312.686 259.835 311.396 257.459 308.34C255.354 305.647 253.951 302.207 252.525 300.215C252.435 300.261 252.367 300.306 252.299 300.374C251.643 300.804 250.987 301.234 250.466 301.845Z" fill="#233862"/>
<path d="M304.415 297.658C304.822 299.717 307.764 299.378 311.068 298.586C314.35 297.771 313.58 298.744 318.265 298.224C322.949 297.703 324.352 295.96 324.51 295.259C324.646 294.648 322.315 294.422 319.849 294.127C319.532 294.082 319.215 294.059 318.921 294.014C316.115 293.652 314.078 291.864 311.521 290.37C309.122 288.967 305.524 283.241 305.524 283.241L299.097 283.739C299.097 283.739 302.469 288.854 303.759 291.072C304.528 292.385 304.483 294.105 304.393 295.44C304.325 296.187 304.279 296.934 304.415 297.658Z" fill="#FFB27D"/>
<path d="M311.069 298.563C314.35 297.748 313.581 298.722 318.265 298.201C322.949 297.681 324.352 295.938 324.511 295.236C324.647 294.625 322.316 294.399 319.849 294.105L319.826 294.15C319.826 294.15 317.02 296.142 313.128 296.232C309.96 296.3 306.588 295.395 304.393 295.44C304.348 296.164 304.302 296.911 304.438 297.635C304.823 299.717 307.765 299.378 311.069 298.563Z" fill="#233862"/>
<path d="M279.817 256.603L273.82 272.763L265.99 293.856C265.99 293.856 263.863 294.059 261.826 293.471C259.948 292.928 257.798 291.502 257.798 291.502C257.798 291.502 259.97 268.87 264.021 255.856C265.062 252.529 266.216 249.814 267.506 248.297C273.82 240.874 279.817 256.603 279.817 256.603Z" fill="#233862"/>
<path d="M273.707 230.961C269.769 229.694 258.568 231.323 247.298 233.518L244.945 229.626L220.618 227.725C220.618 227.725 212.584 245.536 216.974 256.875C217.63 258.55 218.898 259.613 221.093 259.636H221.455C221.455 259.636 235.938 259.636 240.645 259.636C252.752 259.636 266.239 251.307 268.004 250.968C270.856 250.402 272.01 256.105 274.861 262.125C277.712 268.123 301.745 288.718 301.745 288.718C301.745 288.718 305.434 288.763 306.973 288.175C308.602 287.564 309.213 286.772 309.213 286.772C309.213 286.772 282.578 233.813 273.707 230.961Z" fill="#2B478B"/>
<path d="M243.994 158.787C240.871 157.158 236.141 156.931 235.372 156.818C226.162 155.573 220.595 168.972 220.278 173.045C219.667 180.537 215.729 181.668 210.14 186.353C198.961 195.745 202.242 206.677 208.352 210.728C212.018 213.172 218.468 210.728 218.468 210.728C218.558 210.796 236.141 200.905 244.786 196.13C257.798 194.274 251.937 162.974 243.994 158.787Z" fill="#233862"/>
<path d="M237.545 192.079C237.59 192.102 233.29 193.573 230.416 192.305C227.701 191.106 225.664 186.647 225.709 186.647C226.931 186.579 228.289 185.516 229.33 178.454L229.85 178.635L238.653 181.804C238.653 181.804 238.02 184.633 237.613 187.326C237.25 189.589 237.069 191.762 237.545 192.079Z" fill="#FFB27D"/>
<path d="M238.653 181.804C238.653 181.804 238.019 184.633 237.612 187.326C232.543 186.421 230.574 181.374 229.85 178.635L238.653 181.804Z" fill="#ED975D"/>
<path d="M239.966 184.61C239.966 184.61 227.904 182.981 229.035 175.49C230.167 167.998 229.352 162.748 237.114 163.449C244.854 164.174 245.917 167.251 246.166 169.832C246.37 172.457 243.134 184.837 239.966 184.61Z" fill="#FFB27D"/>
<path d="M245.714 165.758C245.714 165.758 237.997 172.412 232.747 172.955C227.497 173.498 225.505 171.801 225.505 171.801C225.505 171.801 228.606 169.221 230.461 165.079C231.004 163.857 232.159 163.019 233.494 162.906C237.25 162.589 244.356 162.431 245.714 165.758Z" fill="#233862"/>
<path d="M240.871 165.169C240.871 165.169 243.451 167.659 244.266 169.515C245.058 171.303 245.284 175.58 244.65 177.278C244.65 177.278 248.678 169.447 246.393 165.645C243.994 161.616 240.871 165.169 240.871 165.169Z" fill="#233862"/>
<path d="M247.705 209.823C247.343 234.22 247.615 229.128 244.944 231.436C244.311 232.002 242.5 232.319 240.124 232.477C232.634 232.975 219.486 231.73 218.988 230.35C217.268 225.574 218.49 224.081 217.042 216.748C216.883 215.978 216.702 215.118 216.499 214.213C215.299 209.189 214.122 207.469 218.4 199.389C222.269 192.056 226.275 186.127 226.637 186.33C236.82 192.373 237.657 187.304 237.657 187.304C237.657 187.304 247.886 197.918 247.705 209.823Z" fill="white"/>
<path d="M273.82 272.763L265.99 293.856C265.99 293.856 263.863 294.059 261.826 293.471C259.948 292.928 257.798 291.502 257.798 291.502C257.798 291.502 259.97 268.87 264.021 255.856L273.82 272.763Z" fill="#2B478B"/>
<path d="M237.612 187.326C237.612 187.326 248.09 189.114 249.335 193.618C250.557 198.144 257.821 224.669 257.821 224.669C257.821 224.669 252.48 225.62 250.036 223.176C247.569 220.709 241.459 200.317 241.459 200.317L237.612 187.326Z" fill="white"/>
<path d="M240.101 232.5C232.611 232.998 219.463 231.753 218.965 230.373C217.245 225.597 218.467 224.103 217.019 216.771L220.617 206.609C220.617 206.609 220.029 217.925 223.355 220.912C226.682 223.9 237.024 226.661 238.63 229.15C239.445 230.35 239.943 231.527 240.101 232.5Z" fill="#EBF3FF"/>
<path d="M231.525 227.747C231.525 227.747 238.902 226.095 240.102 226.751C241.301 227.408 244.198 229.784 244.56 230.622C244.922 231.459 241.912 229.988 240.916 229.739C240.283 229.558 238.608 230.146 237.771 230.418C234.286 231.572 232.159 230.984 232.159 230.984L231.525 227.747Z" fill="#FFB27D"/>
<path d="M226.592 186.353C226.592 186.353 216.68 186.964 213.24 191.739C208.42 198.484 198.825 227.181 204.324 231.029C210.502 235.352 232.475 232.161 232.475 232.161C232.475 232.161 233.2 228.743 232.181 227.091C231.163 225.439 214.643 222.768 213.874 221.999C213.104 221.229 223.401 207.129 223.401 204.844C223.401 202.558 226.592 186.353 226.592 186.353Z" fill="white"/>
<path d="M240.463 228.811C240.463 228.811 242.002 230.803 242.523 231.052C243.021 231.3 243.36 231.233 243.36 231.233L242.319 229.354L240.463 228.811Z" fill="#FFB27D"/>
<path d="M240.102 226.751L244.605 228.924C244.605 228.924 244.424 229.241 243.858 229.218C243.315 229.196 241.912 228.675 241.912 228.675L240.102 226.751Z" fill="#FFB27D"/>
<path d="M242.5 234.084H278.074L288.778 207.491H253.272L242.5 234.084Z" fill="#F99746"/>
<path d="M278.504 233.066H231.525V234.084H278.074L278.504 233.066Z" fill="#ED7D2B"/>
<path d="M269.113 220.777C269.384 219.849 268.841 219.079 267.913 219.079C266.986 219.079 266.012 219.849 265.741 220.777C265.469 221.704 266.012 222.474 266.94 222.474C267.868 222.474 268.841 221.727 269.113 220.777Z" fill="white"/>
<path d="M428.29 318.796H428.404C429.015 318.796 429.513 318.276 429.49 317.619L427.838 242.073L422.995 241.485L427.136 317.642C427.159 318.276 427.679 318.796 428.29 318.796Z" fill="#78ACEA"/>
<path d="M231.706 318.796H231.593C230.982 318.796 230.484 318.276 230.507 317.619L232.159 242.073L237.001 241.485L232.86 317.642C232.837 318.276 232.317 318.796 231.706 318.796Z" fill="#78ACEA"/>
<path d="M434.129 243.454H226.682C224.985 243.454 223.604 242.073 223.604 240.376V237.411C223.604 235.714 224.985 234.333 226.682 234.333H434.129C435.826 234.333 437.207 235.714 437.207 237.411V240.376C437.207 242.073 435.826 243.454 434.129 243.454Z" fill="#78ACEA"/>
<path d="M181.468 104.855C180.676 85.459 196.947 76.8361 213.557 76.8361C230.167 76.8361 248.271 81.1362 249.833 106.937C250.851 123.526 242.003 133.733 216.522 133.733C207.922 133.733 201.247 132.375 196.132 129.954L183.392 141.27L189.638 125.631C184.139 120.493 181.808 113.229 181.468 104.855Z" fill="#DFEDFB"/>
<path d="M559.272 318.706C559.272 318.706 559.747 315.062 560.833 312.889C561.92 310.717 568.799 312.097 568.799 312.097C568.799 312.097 570.18 313.274 570.474 318.796L559.272 318.706Z" fill="#233862"/>
<path d="M535.782 318.66C537.412 317.665 536.484 310.287 536.484 310.287C536.484 310.287 528.926 304.244 527.907 308.861C526.889 313.478 520.733 315.56 517.248 316.126C514.85 316.51 514.103 317.846 513.854 318.638H535.782V318.66Z" fill="#233862"/>
<path d="M551.419 265C551.102 266.697 550.921 268.078 550.876 269.073C550.175 282.766 539.358 314.066 537.411 314.79C534.424 315.922 529.695 313.523 527.228 312.731C526.21 312.414 525.508 311.373 525.734 310.332C531.098 285.708 533.066 250.221 533.768 229.241C534.13 218.672 535.94 211.362 535.94 211.362C535.94 211.362 562.327 204.323 562.485 213.217C562.644 221.093 553.773 252.009 551.419 265Z" fill="#213F7A"/>
<path d="M551.42 265L533.791 229.218C534.153 218.649 535.963 211.339 535.963 211.339C535.963 211.339 562.35 204.3 562.508 213.195C562.644 221.093 553.773 252.009 551.42 265Z" fill="#233862"/>
<path d="M545.536 213.24L559.476 314.338C559.476 314.338 565.608 315.809 570.361 314.632C570.361 314.632 574.434 260.858 574.094 247.867C573.755 234.876 577.036 213.082 573.348 210.683C569.704 208.284 545.536 213.24 545.536 213.24Z" fill="#213F7A"/>
<path d="M576.108 211.565C576.176 212.471 575.588 213.308 574.705 213.557C572.759 214.123 570.519 214.507 566.197 215.413C562.123 216.25 556.669 216.997 549.948 217.042C539.267 217.11 535.216 213.421 535.216 213.421C534.764 213.421 535.465 211.203 536.099 200.566C536.303 196.968 536.529 192.396 536.665 186.625C536.8 181.442 536.891 175.263 536.891 167.953C536.914 159.149 550.537 149.689 550.786 149.689C550.786 150.956 552.777 153.287 555.855 153.491C559.498 153.74 563.979 151.907 563.979 149.802C563.979 149.78 570.587 160.371 572.918 171.642C574.117 177.323 573.642 177.164 576.108 211.565Z" fill="#B0D0FF"/>
<path d="M550.786 149.689C550.786 149.689 538.113 149.576 535.058 153.853C532.003 158.131 525.327 181.125 528.812 188.797C532.297 196.447 538.837 185.629 542.458 180.944C546.079 176.236 550.786 149.689 550.786 149.689Z" fill="#B0D0FF"/>
<path d="M550.65 147.743V149.055C550.65 149.055 550.288 153.152 555.335 153.74C560.381 154.351 564.115 152.971 563.979 149.825C563.526 147.381 563.097 144.868 563.074 142.831C563.051 142.085 563.119 141.27 563.255 140.387L553.479 140.183L550.605 140.659L550.65 147.743Z" fill="#FFB27D"/>
<path d="M550.605 140.659L550.65 147.743C551.691 148.218 552.868 148.512 554.18 148.512C558.661 148.512 561.58 145.208 563.097 142.831C563.074 142.085 563.142 141.27 563.278 140.387L553.502 140.183L550.605 140.659Z" fill="#E2915A"/>
<path d="M564.001 138.803C562.87 144.914 554.995 144.71 551.6 144.325C550.65 144.212 550.039 144.099 550.039 144.099C548.953 143.805 548.364 142.107 548.07 139.889C547.504 135.476 548.206 129.003 548.953 127.351C550.084 124.862 552.189 122.168 560.109 124.115C568.052 126.061 565.472 130.995 564.001 138.803Z" fill="#FFB27D"/>
<path d="M537.819 166.821C537.819 166.821 532.908 177.64 533.067 180.899C533.067 180.899 535.488 180.808 537.819 181.51C541.644 182.641 537.819 166.821 537.819 166.821Z" fill="#98BAF4"/>
<path d="M546.531 121.535C546.531 121.535 550.016 121.263 554.135 119.475C557.484 118.027 561.693 119.611 563.051 120.335C563.006 120.109 562.915 119.815 562.712 119.52C562.712 119.52 563.323 119.95 563.413 120.561C563.481 120.607 563.504 120.629 563.481 120.652C563.481 120.652 564.183 120.516 564.635 120.72C564.635 120.72 564.318 120.675 564.205 120.878C564.183 120.901 564.183 120.924 564.16 120.924C569.365 123.436 569.863 131.674 568.165 133.598C566.151 135.883 563.096 141.089 563.096 141.089C563.096 141.089 562.847 139.844 563.21 137.83C563.572 135.815 561.829 135.815 559.634 134.888C557.439 133.96 559.272 131.402 557.348 129.841C555.425 128.279 548.364 129.207 548.455 128.007C545.853 127.057 546.531 121.806 546.531 121.535Z" fill="#233862"/>
<path d="M565.608 187.1C563.549 195.406 541.168 199.706 536.076 200.566C536.28 196.968 536.506 192.396 536.642 186.625L565.608 187.1Z" fill="#98BAF4"/>
<path d="M560.697 189.793C560.901 189.793 565.676 189.092 566.513 188.661C567.351 188.231 571.266 182.687 568.708 181.283C566.151 179.858 559.294 185.538 559.294 185.538L560.697 189.793Z" fill="#FFB27D"/>
<path d="M531.754 191.445C531.754 191.445 550.152 192.441 562.508 189.793C562.508 189.793 562.825 186.217 558.932 184.633C558.932 184.633 539.674 180.559 535.058 181.691C530.441 182.845 531.754 191.445 531.754 191.445Z" fill="#B0D0FF"/>
<path d="M574.026 177.006C570.202 181.623 565.201 185.38 559.702 186.263C559.657 186.195 558.027 183.728 558.344 180.107C558.48 178.432 559.046 176.508 560.358 174.471C560.765 173.837 561.128 173.113 561.444 172.298C564.454 164.626 564.001 149.847 564.001 149.847C564.001 149.847 576.765 151.183 580.748 156.863C583.169 160.303 580.069 169.718 574.026 177.006Z" fill="#B0D0FF"/>
<path d="M551.601 144.325C550.65 144.212 550.039 144.099 550.039 144.099C548.953 143.805 548.365 142.107 548.07 139.889C550.084 140.387 551.012 141.949 551.42 142.628C551.601 142.922 551.623 143.578 551.601 144.325Z" fill="#E2915A"/>
<path d="M546.463 147.788C546.463 147.788 542.051 140.5 545.49 140.183C548.93 139.867 550.288 142.198 550.786 143.035C551.284 143.873 550.65 147.743 550.65 147.743L546.463 147.788Z" fill="#FFB27D"/>
<path d="M563.255 179.858C563.119 180.786 562.847 181.623 562.508 182.392C561.422 184.791 559.702 186.263 559.702 186.263C548.251 181.102 545.943 163.336 545.536 153.582C545.377 149.666 545.536 147.041 545.536 147.041C550.695 145.321 552.144 148.308 552.144 148.308C552.144 148.308 558.254 162.816 561.399 172.298C562.644 175.897 563.413 178.794 563.255 179.858Z" fill="#B0D0FF"/>
<path d="M574.027 177.006C570.202 181.623 565.201 185.38 559.702 186.263C548.251 181.102 545.943 163.336 545.536 153.582C545.536 153.582 550.944 173.249 558.321 180.107C559.657 181.351 561.06 182.166 562.485 182.392C562.485 182.392 571.786 179.767 573.732 177.278C573.913 177.097 573.981 177.006 574.027 177.006Z" fill="#98BAF4"/>
<path d="M365.448 234.333H329.874L319.17 207.718H354.676L365.448 234.333Z" fill="#2B478B"/>
<path d="M329.444 233.292H376.423V234.333H329.874L329.444 233.292Z" fill="#2B478B"/>
<path d="M338.858 221.025C338.586 220.098 339.129 219.328 340.057 219.328C340.985 219.328 341.958 220.098 342.23 221.025C342.501 221.953 341.958 222.723 341.03 222.723C340.102 222.723 339.129 221.976 338.858 221.025Z" fill="white"/>
<path d="M654 318.117V318.344C654 318.706 653.661 319 653.253 319H0.746782C0.339446 319 0 318.706 0 318.344V318.117C0 317.755 0.339446 317.461 0.746782 317.461H653.276C653.683 317.461 654 317.755 654 318.117Z" fill="#2E3552"/>
</g>
<defs>
<clipPath id="clip0_536_4">
<rect width="654" height="319" fill="white"/>
</clipPath>
</defs>
</svg>
